<svg xmlns="http://www.w3.org/2000/svg" viewBox="0 0 48 48" fill="none">
  <rect x="2" y="2" width="44" height="44" stroke="#bfff00" stroke-width="2" opacity="0.3"/>
  <rect x="8" y="8" width="32" height="32" stroke="#bfff00" stroke-width="1.5" opacity="0.5"/>
  <rect x="14" y="14" width="20" height="20" stroke="#bfff00" stroke-width="1" opacity="0.7"/>
  <g transform="translate(16, 12)">
    <path d="M8 0 L8 4 M14 2 L12 4 M16 8 L12 8 M14 14 L12 12 M8 16 L8 12 M2 14 L4 12 M0 8 L4 8 M2 2 L4 4" stroke="#bfff00" stroke-width="2" stroke-linecap="square"/>
    <rect x="4" y="4" width="8" height="8" fill="#bfff00"/>
  </g>
  <g transform="translate(10, 20)">
    <path d="M20 6 C20 2.7 17.3 0 14 0 C13.4 0 12.8 0.1 12.2 0.2 C11.4 -1.8 9.3 -3 7 -3 C3.7 -3 1 -0.3 1 3 C1 3.3 1 3.6 1.1 3.9 C-0.6 4.4 -2 6 -2 7.9 C-2 10.2 -0.2 12 2.1 12 L22 12 C24.2 12 26 10.2 26 8 C26 6 24.5 4.4 22.6 4.1 C22.9 3.4 23 2.7 23 2" fill="none"/>
    <path d="M21 11 L3 11 C1 11 -0.5 9.5 -0.5 7.5 C-0.5 5.9 0.6 4.6 2.1 4.2 C2 3.8 2 3.4 2 3 C2 0.2 4.2 -2 7 -2 C9.4 -2 11.4 -0.2 11.8 2.2 C12.3 2.1 12.9 2 13.5 2 C16.5 2 19 4.5 19 7.5 C19 8 18.9 8.5 18.8 9 C20.2 9.1 21.3 10.2 21.3 11.6" fill="#bfff00" opacity="0.9"/>
  </g>
  <line x1="2" y1="46" x2="14" y2="46" stroke="#bfff00" stroke-width="1" opacity="0.5"/>
  <line x1="34" y1="46" x2="46" y2="46" stroke="#bfff00" stroke-width="1" opacity="0.5"/>
  <line x1="46" y1="2" x2="46" y2="14" stroke="#bfff00" stroke-width="1" opacity="0.5"/>
  <line x1="46" y1="34" x2="46" y2="46" stroke="#bfff00" stroke-width="1" opacity="0.5"/>
</svg>
